<?xml version="1.0" standalone="no"?>
<!DOCTYPE svg PUBLIC "-//W3C//DTD SVG 20010904//EN"
 "http://www.w3.org/TR/2001/REC-SVG-20010904/DTD/svg10.dtd">
<svg version="1.0" xmlns="http://www.w3.org/2000/svg"
 width="858.000000pt" height="900.000000pt" viewBox="0 0 858.000000 900.000000"
 preserveAspectRatio="xMidYMid meet">
<metadata>
Created by potrace 1.10, written by Peter Selinger 2001-2011
</metadata>
<g transform="translate(0.000000,900.000000) scale(0.100000,-0.100000)"
fill="#000000" stroke="none">
<path d="M3993 8993 c3 -5 -15 -42 -39 -83 -108 -187 -106 -174 -47 -303 40
-90 39 -106 -13 -168 -20 -24 -40 -54 -45 -66 -5 -13 -15 -23 -23 -23 -8 0
-96 80 -196 178 -100 97 -210 203 -245 235 l-63 57 -866 0 -866 0 -108 -97
c-59 -54 -118 -110 -132 -124 -14 -14 -95 -88 -180 -165 -85 -76 -166 -151
-180 -165 -14 -14 -95 -88 -180 -165 -85 -76 -166 -151 -180 -165 -14 -14 -70
-65 -125 -113 -55 -49 -110 -97 -122 -108 -44 -39 -21 -63 48 -52 l39 7 -2
-804 -3 -804 -211 4 c-116 2 -220 0 -232 -3 -16 -5 -22 -15 -22 -37 l0 -29
692 0 c444 1 694 -3 696 -9 2 -5 -5 -22 -15 -37 -30 -46 -24 -135 15 -217 18
-38 32 -79 32 -91 0 -13 -17 -43 -38 -67 -78 -90 -84 -103 -84 -183 1 -43 7
-89 16 -111 25 -60 20 -117 -16 -182 -82 -149 -83 -151 -83 -253 0 -58 5 -108
14 -128 7 -17 14 -67 14 -110 1 -68 -2 -85 -31 -143 -27 -55 -32 -77 -32 -138
0 -41 6 -87 15 -108 26 -62 15 -200 -27 -328 -5 -16 -12 -64 -15 -107 -6 -77
5 -129 45 -218 23 -50 99 -128 155 -156 26 -13 47 -31 47 -40 0 -33 -78 -152
-136 -206 -40 -36 -123 -84 -165 -93 -18 -4 -126 -11 -239 -14 -113 -4 -206
-8 -207 -9 -8 -6 -1 -41 10 -50 9 -7 88 -8 257 -2 151 5 310 4 415 -2 124 -8
237 -7 416 2 136 7 258 10 273 6 14 -3 281 -5 593 -4 313 1 647 1 743 1 96 -1
734 -3 1418 -5 1309 -4 1269 -5 1260 39 -3 17 -24 18 -292 23 l-289 5 0 478
c0 263 2 480 4 482 5 4 1596 18 2064 17 182 0 474 -3 649 -7 176 -4 339 -4
363 0 37 5 43 10 43 30 0 17 -7 25 -27 30 -16 4 -172 8 -348 9 l-320 1 0 345
0 345 30 -2 c17 -1 173 -3 348 -5 l317 -3 0 33 0 32 -63 0 c-97 0 -185 38
-248 107 -35 38 -79 105 -79 120 0 7 22 24 48 37 58 29 106 82 134 145 28 63
35 167 15 228 -27 85 -39 190 -26 236 19 71 15 166 -11 222 -20 43 -22 60 -17
130 3 44 11 94 17 112 16 43 -3 133 -40 193 -51 85 -55 108 -36 200 23 104 16
136 -39 202 -50 58 -52 65 -28 120 12 28 23 38 39 38 30 0 54 10 54 22 0 6
-13 26 -30 45 -16 18 -30 43 -30 54 0 10 -11 36 -24 57 -13 20 -35 60 -49 87
-14 28 -37 57 -51 64 -23 13 -28 12 -47 -5 -12 -10 -27 -31 -35 -46 -8 -16
-19 -28 -25 -28 -6 0 -45 26 -87 58 -42 32 -102 76 -132 97 -30 21 -59 42 -65
46 -49 40 -194 148 -280 209 -59 41 -179 129 -268 194 -156 115 -164 120 -219
124 -47 4 -64 0 -95 -19 -21 -13 -40 -25 -43 -28 -3 -4 -21 -17 -40 -31 -19
-13 -39 -28 -45 -32 -49 -40 -266 -198 -272 -198 -5 0 -28 -18 -53 -40 -25
-22 -48 -40 -52 -40 -3 0 -30 -20 -59 -45 -29 -25 -59 -45 -67 -45 -8 0 -70
42 -139 93 -68 50 -159 117 -202 147 -85 60 -247 178 -463 338 -76 56 -142
102 -147 102 -5 0 -14 6 -20 14 -16 19 -79 29 -126 20 -34 -6 -107 -56 -365
-249 -19 -14 -100 -74 -180 -132 -80 -58 -169 -126 -198 -150 -86 -69 -99 -55
-62 65 36 114 26 181 -45 301 -45 76 -53 130 -31 197 39 121 32 158 -50 254
-54 63 -56 88 -12 173 49 97 46 130 -29 261 -35 60 -63 113 -63 118 0 4 -25 8
-56 8 -30 0 -53 -3 -51 -7z m93 -110 c13 -32 32 -65 40 -74 8 -9 17 -39 21
-68 5 -42 1 -61 -21 -111 -51 -113 -44 -159 35 -245 38 -41 43 -52 41 -88 -1
-23 -8 -64 -17 -92 -28 -92 -21 -134 40 -250 59 -113 69 -166 44 -245 -5 -19
-10 -69 -11 -110 l0 -76 -36 -24 c-63 -42 -347 -252 -357 -264 -20 -24 -51
-36 -63 -24 -21 21 -15 160 9 215 36 83 41 153 18 267 -27 132 -22 167 36 266
59 101 65 140 36 255 -13 49 -19 95 -15 108 4 12 30 48 59 79 70 75 75 104 35
205 -41 108 -40 140 12 245 24 48 49 87 56 87 7 1 24 -25 38 -56z m-1568 -131
l774 -4 81 -71 c45 -40 138 -126 207 -192 69 -67 151 -145 182 -175 54 -52 58
-59 73 -132 14 -71 14 -81 -2 -120 -9 -24 -26 -59 -38 -78 -11 -19 -26 -47
-33 -62 l-12 -28 -502 0 c-277 0 -526 -3 -555 -6 -47 -6 -54 -4 -80 22 -15 16
-77 73 -138 128 -60 55 -119 109 -130 120 -11 12 -90 84 -175 160 -85 77 -166
151 -180 165 -14 14 -75 70 -135 125 -61 54 -120 109 -133 123 -24 26 -20 49
7 37 9 -5 364 -10 789 -12z m-833 -68 c33 -31 128 -118 210 -192 83 -75 161
-147 175 -161 14 -14 95 -89 180 -165 85 -77 166 -151 180 -165 14 -14 75 -71
135 -126 123 -111 139 -129 131 -151 -10 -26 -26 -13 -276 229 -230 223 -621
591 -772 726 -17 15 -39 24 -59 23 -30 -1 -30 0 -13 19 27 29 44 24 109 -37z
m18 -132 c50 -49 164 -156 252 -238 184 -171 366 -346 439 -421 28 -29 92 -89
141 -133 l90 -82 -3 -736 c-1 -405 1 -765 6 -799 5 -35 5 -68 1 -74 -5 -8
-100 -11 -345 -8 -187 1 -409 3 -494 3 l-155 1 -27 54 c-33 64 -44 73 -81 66
-33 -6 -63 -38 -72 -77 -4 -15 -12 -31 -18 -35 -6 -4 -211 -6 -456 -6 l-446 1
-3 800 -2 799 96 89 c53 49 108 100 123 114 14 14 53 50 87 80 150 136 250
227 274 251 14 15 49 46 76 69 68 59 210 189 313 288 47 45 92 82 99 82 7 0
54 -40 105 -88z m3555 -554 c51 -33 378 -264 445 -316 20 -15 86 -63 147 -107
200 -144 250 -190 234 -216 -3 -5 -33 -28 -67 -50 -34 -23 -80 -59 -102 -79
-22 -21 -66 -55 -98 -75 -66 -41 -98 -43 -207 -11 -48 14 -146 16 -810 16
-415 0 -765 3 -777 6 -13 4 -23 12 -23 18 0 6 46 47 103 91 56 43 129 102 162
130 33 28 123 93 200 145 77 51 156 106 175 121 31 25 153 115 295 219 215
157 234 163 323 108z m1747 -158 c23 -11 52 -31 65 -45 l23 -25 -141 0 c-119
0 -140 2 -136 14 10 26 94 73 133 75 8 1 33 -8 56 -19z m-3743 -11 c295 -1
478 -5 485 -11 7 -6 10 -22 6 -39 -3 -17 2 -59 12 -95 10 -39 14 -69 9 -74
-14 -14 -1072 -16 -1085 -3 -6 6 -9 21 -7 34 3 23 8 24 81 27 96 4 98 14 20
77 -32 25 -64 50 -71 56 -23 19 6 42 45 34 18 -3 245 -6 505 -6z m3943 -131
c17 -9 46 -30 65 -47 l35 -30 -347 -1 c-205 0 -348 4 -348 9 0 17 78 71 116
80 22 6 131 9 244 8 170 -2 210 -5 235 -19z m239 -171 c32 -23 57 -46 55 -51
-5 -11 -1093 -12 -1098 0 -3 5 22 28 55 51 l59 42 435 0 435 0 59 -42z m-4605
9 c-10 -9 -139 -14 -139 -6 0 6 32 10 72 10 39 0 69 -2 67 -4z m921 -6 c0 -7
-14 -8 -37 -4 -52 9 -54 14 -5 14 23 0 42 -5 42 -10z m-8 -76 c4 -3 -2 -24
-13 -47 -22 -51 -24 -108 -3 -162 25 -64 28 -85 13 -86 -8 0 -106 -2 -219 -2
l-205 -2 -1 -433 c0 -255 -4 -436 -10 -440 -5 -5 -117 -6 -249 -3 -132 4 -247
2 -255 -2 -17 -10 -37 -41 -77 -121 -20 -38 -27 -45 -37 -35 -8 10 -10 190 -8
677 l3 662 528 0 c290 0 530 -3 533 -6z m3813 -43 c51 -10 152 -80 133 -92 -7
-5 -356 -9 -776 -9 -702 1 -763 2 -760 17 3 16 70 55 138 79 27 10 175 13 630
13 327 0 613 -3 635 -8z m200 -160 c44 -7 76 -20 122 -51 35 -23 65 -46 68
-51 4 -5 -362 -10 -939 -11 -520 -1 -981 -3 -1023 -3 -58 0 -78 3 -78 13 0 7
34 36 77 65 l76 52 819 -3 c450 -1 845 -6 878 -11z m412 -241 c-3 -25 -14 -70
-25 -101 -26 -70 -18 -106 38 -168 45 -50 52 -91 25 -154 -27 -66 -20 -117 32
-214 53 -100 57 -135 28 -257 -16 -67 -14 -130 6 -166 43 -81 46 -110 18 -228
-11 -48 -9 -68 16 -195 34 -172 28 -227 -32 -296 -118 -138 -326 -116 -404 43
-21 45 -27 192 -9 227 23 41 31 180 17 258 -15 78 -11 120 19 180 13 27 16 52
12 130 -3 53 -11 109 -19 124 -16 36 -1 101 41 169 16 26 35 68 43 94 12 43
12 57 -5 131 -19 89 -14 119 27 153 24 20 55 85 55 115 0 14 -13 53 -30 87
-16 33 -30 74 -30 90 0 17 13 50 30 75 17 24 30 48 30 54 0 5 9 18 21 30 l21
21 40 -79 c33 -66 39 -85 35 -123z m-4543 84 c12 -4 13 -11 6 -24 -13 -24 -4
-30 52 -30 56 0 56 2 28 -106 -25 -100 -26 -198 -1 -272 24 -72 36 -365 16
-382 -7 -6 -77 -9 -181 -8 l-169 3 0 48 c1 26 2 209 3 407 l2 359 93 4 c50 1
102 4 114 5 12 1 28 -1 37 -4z m3309 -4 c532 -1 974 -3 982 -6 18 -7 20 -48 3
-62 -9 -7 -375 -11 -1096 -14 -1197 -3 -1121 -8 -1032 60 43 33 47 34 110 28
36 -3 500 -6 1033 -6z m-1265 -58 c1 -5 -13 -19 -33 -31 -24 -14 -35 -27 -33
-39 3 -15 21 -18 156 -22 l153 -5 0 -1035 0 -1035 -233 0 -233 0 0 45 c0 42 2
45 29 50 41 7 54 32 33 61 -9 13 -41 58 -70 99 -29 41 -89 127 -132 190 -43
63 -99 144 -124 180 -24 36 -78 115 -120 175 -100 147 -178 254 -208 287 -14
14 -23 34 -21 44 3 17 20 18 303 16 165 -2 325 -5 356 -8 112 -12 176 62 116
132 -17 19 -37 29 -68 33 l-44 6 3 267 c2 253 1 269 -17 287 -19 19 -40 19
-550 19 -476 0 -533 -1 -547 -16 -15 -14 -16 -42 -12 -229 2 -118 1 -216 -4
-219 -11 -7 -557 -8 -564 -2 -2 3 -6 175 -7 381 -2 320 0 377 12 379 42 8
1856 -2 1859 -10z m2294 -99 c13 -12 18 -30 18 -67 0 -45 -5 -56 -40 -96 -37
-41 -40 -50 -40 -103 0 -33 7 -84 16 -114 l16 -54 -46 -95 c-25 -52 -46 -102
-46 -112 0 -27 -16 -44 -36 -40 -18 3 -19 19 -22 293 -2 204 -6 291 -14 296
-6 4 -251 7 -545 7 -456 0 -535 -2 -548 -15 -12 -12 -15 -59 -14 -281 0 -147
0 -273 0 -279 -1 -9 -19 -13 -55 -13 -63 0 -77 -12 -82 -72 -5 -55 -17 -65
-39 -32 -16 25 -17 56 -16 346 2 233 -1 323 -10 334 -9 11 -45 14 -170 14
-143 0 -161 -2 -178 -19 -18 -18 -19 -36 -16 -335 l2 -315 -23 -22 c-30 -28
-31 -68 -3 -103 l20 -26 189 0 190 0 16 26 c9 14 21 21 25 17 7 -7 11 -383 9
-1004 l0 -206 -267 1 -268 1 -5 1021 c-3 561 -4 1028 -2 1037 3 16 76 17 975
20 535 1 976 3 981 5 5 1 18 -5 28 -15z m-1552 -154 c3 -4 5 -45 5 -91 l0 -83
-127 -3 -128 -3 0 95 0 95 108 3 c107 3 133 1 142 -13z m558 -78 c1 -52 -1
-97 -7 -100 -5 -3 -59 -5 -119 -3 -127 4 -119 -5 -114 113 l4 78 101 4 c56 1
109 3 117 2 12 0 16 -19 18 -94z m430 90 c9 -1 12 -61 12 -266 l0 -265 -187 2
-188 3 -3 259 c-1 151 2 262 7 265 7 5 271 6 359 2z m315 -1 c4 0 7 -43 7 -95
l0 -96 -122 3 -123 3 -1 85 c-1 47 2 90 6 95 5 6 53 9 117 8 59 -2 111 -3 116
-3z m-3032 -195 c-1 -44 -5 -83 -8 -87 -2 -5 -55 -8 -118 -8 -100 0 -114 2
-118 18 -4 14 -2 151 2 160 0 1 56 1 123 0 l123 -3 -4 -80z m440 -168 c1 -136
-1 -250 -4 -253 -3 -4 -329 -8 -372 -5 -7 1 -9 86 -8 249 2 136 3 250 3 255 0
4 86 6 190 5 l191 -3 0 -248z m304 163 l0 -85 -120 0 -120 0 -5 78 c-3 42 -3
82 -2 87 3 7 50 10 125 8 l122 -3 0 -85z m981 -62 c3 -5 7 -84 8 -176 l1 -167
-125 0 -125 0 -3 165 c-1 90 0 170 2 176 6 15 233 16 242 2z m562 -131 l3
-138 -118 3 -118 3 -5 125 c-3 69 -1 131 4 137 6 9 40 12 120 10 l111 -2 3
-138z m750 1 l3 -138 -121 0 c-66 0 -120 3 -121 8 -3 26 -3 264 0 268 2 2 56
3 120 1 l116 -2 3 -137z m-3052 34 c14 -9 29 -188 16 -196 -10 -6 -38 23 -65
67 -22 34 -40 34 -64 1 -21 -28 -86 -43 -113 -25 -18 12 -15 141 3 153 15 10
209 10 223 0z m758 -2 c7 -8 10 -249 3 -256 -7 -8 -239 -5 -247 2 -8 9 1 248
11 254 10 7 226 6 233 0z m-822 -202 c27 -23 131 -160 150 -200 11 -22 17 -45
14 -51 -2 -7 -5 -4 -5 6 -1 9 -5 17 -9 17 -5 0 -29 28 -54 63 -56 75 -94 117
-107 117 -23 0 -83 -81 -290 -390 -208 -310 -410 -611 -480 -712 -18 -27 -38
-49 -44 -49 -47 -5 -1680 2 -1712 7 -118 19 66 26 851 31 756 5 843 8 853 22
6 9 39 59 74 111 60 91 94 140 212 310 29 41 76 111 106 155 29 44 56 82 59
85 3 3 17 23 30 45 13 22 27 42 31 45 3 3 55 77 114 165 96 144 168 235 185
235 3 0 13 -6 22 -12z m-809 -40 c16 -9 106 -14 312 -18 342 -6 330 0 245
-121 -28 -41 -85 -123 -126 -184 -42 -60 -102 -148 -135 -195 -33 -47 -98
-141 -145 -210 -160 -235 -183 -265 -220 -292 l-37 -28 -727 0 c-582 0 -730 3
-744 13 -17 12 -17 15 -2 52 22 53 171 290 270 430 64 91 174 270 197 323 34
75 131 174 189 192 19 6 118 14 220 17 115 3 200 10 225 19 55 18 446 20 478
2z m4045 -117 c2 -100 0 -128 -13 -148 -13 -20 -15 -41 -10 -106 12 -161 9
-212 -15 -325 -24 -111 -24 -113 -6 -180 10 -37 25 -75 33 -84 22 -25 29 -293
8 -324 -18 -28 -96 -64 -140 -64 l-35 0 1 626 c2 527 0 627 -12 635 -8 5 -192
9 -410 9 -332 0 -398 -2 -408 -14 -9 -11 -13 -170 -14 -623 l-2 -608 -112 -3
c-62 -1 -113 1 -114 5 -3 26 -3 1325 0 1329 3 2 284 3 625 2 l621 -3 3 -124z
m-1390 36 c3 -16 -8 -17 -155 -15 -201 4 -212 21 -18 29 176 6 169 7 173 -14z
m-4884 -41 c3 -13 24 -54 46 -92 22 -38 40 -81 40 -95 0 -15 -14 -57 -30 -94
-57 -127 -50 -187 30 -279 63 -72 63 -75 28 -219 -27 -107 -21 -137 49 -259
l48 -83 -1 -105 c0 -61 -6 -122 -14 -145 -23 -69 -17 -151 17 -225 17 -36 33
-78 36 -95 5 -27 -10 -130 -29 -209 -7 -28 6 -129 28 -216 6 -25 16 -83 23
-130 22 -168 -35 -282 -182 -363 -48 -26 -210 -24 -264 4 -57 28 -126 95 -151
143 -25 50 -36 207 -18 276 16 62 26 114 39 193 10 56 9 77 -5 130 -24 89 -23
181 2 237 12 25 26 59 33 77 15 38 10 134 -14 248 -9 44 -14 99 -11 122 5 34
53 144 117 265 14 26 11 47 -17 154 -14 54 -23 108 -20 120 3 12 28 48 55 80
73 85 85 150 46 239 -32 70 -45 109 -45 128 0 23 70 173 103 220 18 26 20 27
37 12 10 -9 21 -27 24 -39z m3090 -33 c26 -43 81 -127 123 -188 139 -203 447
-649 501 -725 29 -41 63 -91 75 -110 l22 -35 0 -957 c0 -632 -3 -958 -10 -958
-8 0 -1486 0 -1522 0 -10 0 -12 211 -13 961 l0 961 344 517 c189 284 352 532
361 551 42 84 59 81 119 -17z m2941 -25 c8 -47 1 -1152 -7 -1158 -14 -11 -87
2 -92 17 -3 7 -1 44 4 81 11 80 12 692 1 810 -12 122 -2 117 -244 117 -214 0
-250 -4 -263 -32 -5 -10 -9 -229 -11 -487 -1 -275 -5 -472 -11 -478 -5 -5 -27
-8 -48 -6 l-39 3 3 574 c1 450 4 576 14 583 7 4 165 8 350 8 l337 0 6 -32z
m-5500 -10 c204 1 398 5 432 8 88 9 89 -4 6 -114 -37 -50 -88 -121 -113 -157
-25 -37 -64 -94 -88 -128 -23 -34 -89 -132 -147 -217 -57 -85 -121 -180 -142
-211 -21 -31 -50 -63 -65 -72 -25 -14 -28 -22 -28 -70 0 -29 5 -58 11 -64 7
-7 11 -306 12 -957 l2 -946 -25 0 c-74 0 -215 113 -284 227 -41 69 -42 103 -2
103 28 0 101 46 143 91 18 19 46 65 63 103 30 65 31 73 27 175 -2 58 -14 149
-25 201 -24 105 -28 210 -10 243 6 12 12 62 12 112 1 83 -2 96 -33 160 -31 66
-33 74 -27 143 3 40 11 83 18 95 7 13 12 64 12 122 l0 100 -58 109 c-65 122
-66 134 -30 287 17 72 17 79 1 120 -9 24 -32 60 -50 79 -44 48 -67 85 -67 110
0 12 11 45 24 73 52 114 58 160 26 222 -28 55 -26 69 8 60 15 -4 194 -7 397
-7z m5338 -197 c4 -1 7 -212 7 -470 0 -513 3 -487 -58 -475 -15 3 -94 6 -177
7 l-150 2 -3 460 c-1 253 0 465 2 470 3 8 310 12 379 6z m525 -687 c12 -8 22
-22 22 -29 0 -23 -61 -116 -71 -109 -10 6 -12 137 -2 147 10 11 27 8 51 -9z
m145 -33 c14 -6 27 -21 31 -37 10 -40 62 -113 108 -153 21 -18 36 -36 33 -39
-3 -3 -81 -6 -173 -7 -92 -1 -186 -5 -209 -9 -47 -9 -57 2 -25 29 96 82 115
103 139 156 18 39 34 59 47 62 12 2 22 5 23 6 1 0 13 -3 26 -8z m-5148 -114
l810 -2 0 -953 c0 -838 -2 -953 -15 -956 -29 -7 -105 -5 -118 3 -10 6 -13 111
-13 492 0 324 -4 488 -11 496 -8 10 -73 13 -274 13 -254 0 -263 1 -269 20 -3
11 -11 20 -16 20 -5 0 -9 5 -9 11 0 11 -40 48 -52 49 -19 0 -4 -23 45 -72 l52
-52 3 -480 c1 -265 -1 -483 -6 -488 -6 -6 -853 -13 -1041 -8 -16 0 -6 1901 9
1910 6 4 31 5 53 3 23 -2 407 -5 852 -6z m2963 -236 l-3 -66 -82 4 c-95 3 -96
2 -93 -102 1 -34 2 -68 1 -75 -1 -10 -21 -12 -81 -11 -50 2 -84 -1 -92 -9 -7
-7 -12 -46 -12 -94 -1 -81 -2 -83 -28 -92 -18 -6 -38 -6 -55 0 l-28 10 0 244
c0 135 0 247 1 250 1 3 108 5 238 6 l237 0 -3 -65z m1505 8 c8 -89 5 -93 -62
-84 -31 4 -353 10 -716 14 l-660 6 -3 49 c-2 27 -1 54 1 60 3 8 201 12 719 14
l715 3 6 -62z m252 5 c31 -15 60 -35 66 -45 5 -11 8 -114 7 -255 l-3 -237 -25
-18 c-23 -16 -54 -18 -328 -20 -205 -2 -306 1 -313 8 -19 19 5 53 106 153 25
25 71 72 103 104 31 33 89 91 128 130 42 42 83 94 99 126 15 30 32 61 37 68
16 19 63 14 123 -14z m-429 -169 c3 -17 4 -49 2 -70 -3 -39 -4 -40 -38 -37
-19 2 -342 6 -717 8 l-683 5 -6 25 c-9 37 4 92 23 96 9 2 331 3 715 3 l698 0
6 -30z m-197 -169 c7 -8 11 -37 9 -68 l-3 -53 -70 3 c-38 1 -359 5 -713 7
-353 2 -647 7 -652 10 -14 9 -12 89 2 103 9 9 181 12 714 12 594 0 703 -2 713
-14z m-185 -172 c12 -5 16 -21 16 -70 l0 -64 -717 2 -718 3 0 60 0 60 695 5
c382 3 698 6 702 8 3 1 13 -1 22 -4z m-3309 -244 c16 -18 18 -53 21 -442 2
-233 0 -439 -4 -458 l-8 -35 -214 0 -215 0 -3 445 c-1 245 0 455 3 468 3 13
16 27 28 32 12 5 101 9 198 9 163 1 177 0 194 -19z m-1982 -638 c9 -8 17 -23
17 -32 0 -21 63 -127 98 -163 15 -15 48 -42 74 -58 26 -17 46 -34 44 -38 -6
-9 -580 -6 -584 3 -2 4 16 21 38 37 88 64 132 121 178 230 l20 47 48 -5 c27
-3 57 -12 67 -21z"/>
<path d="M1390 8262 c-25 -26 -111 -105 -190 -177 -79 -71 -176 -161 -216
-199 l-73 -69 2 -276 1 -276 -84 3 c-59 2 -86 -1 -92 -10 -9 -15 -10 -103 -2
-135 l6 -23 809 0 809 0 6 27 c9 35 9 92 0 120 -6 18 -16 23 -54 25 l-47 3 1
40 c1 22 2 140 3 262 2 194 0 225 -15 248 -9 14 -58 62 -108 107 -96 86 -272
247 -340 312 -56 53 -80 68 -100 60 -15 -6 -17 -47 -16 -513 0 -278 1 -512 0
-518 0 -10 -27 -13 -100 -13 -88 0 -100 2 -100 18 -1 9 0 243 0 518 1 453 -1
502 -15 508 -29 11 -39 6 -85 -42z m34 -309 l-1 -248 -98 0 -98 0 0 161 0 162
94 90 c52 49 96 89 99 87 3 -2 5 -115 4 -252z m437 163 l83 -80 0 -165 0 -166
-94 0 -94 0 -1 248 c-1 187 2 247 11 245 7 -2 49 -39 95 -82z m259 -238 c90
-86 91 -88 88 -130 l-3 -43 -100 0 -100 0 -1 125 c-1 126 1 144 16 138 4 -2
49 -42 100 -90z m-945 -43 c0 -146 8 -138 -120 -133 l-80 3 1 48 c0 48 2 50
85 127 46 44 91 79 99 80 13 0 15 -20 15 -125z m-1 -203 c2 -4 0 -45 -6 -90
-6 -54 -6 -110 0 -164 14 -115 12 -118 -97 -118 -62 0 -90 4 -93 13 -3 9 -2
352 1 365 2 6 190 1 195 -6z m250 -182 l1 -185 -97 -3 c-74 -2 -98 0 -99 10
-1 14 0 361 0 366 1 1 45 1 98 0 l97 -3 0 -185z m524 182 c9 -7 10 -16 1 -41
-8 -22 -10 -80 -7 -170 3 -75 3 -142 1 -148 -3 -9 -31 -13 -93 -13 -61 0 -89
4 -92 13 -4 9 -2 355 1 365 2 6 178 1 189 -6z m255 -32 c-6 -108 -6 -182 0
-240 4 -36 4 -70 0 -76 -5 -7 -48 -13 -103 -15 l-94 -4 -1 183 c0 101 2 186 5
188 2 3 47 3 100 2 l95 -3 -2 -35z m85 -412 c3 -17 -37 -18 -694 -18 -671 0
-774 3 -774 21 0 13 54 14 775 14 647 0 690 -1 693 -17z"/>
<path d="M892 6958 c-9 -9 -12 -90 -12 -280 l0 -268 -40 0 c-33 0 -40 -4 -41
-20 -1 -11 -3 -35 -4 -52 -1 -18 0 -43 3 -55 l4 -23 344 0 344 0 10 25 c11 28
6 103 -7 115 -4 5 -26 10 -48 12 l-40 3 -5 275 -5 275 -246 2 c-175 2 -249 -1
-257 -9z m228 -298 l0 -251 -92 3 -92 3 1 245 c1 135 2 246 3 248 0 1 41 2 90
2 l90 0 0 -250z m223 0 l2 -245 -90 0 c-87 0 -90 1 -89 23 0 12 1 123 2 247
l2 226 86 -3 86 -3 1 -245z m-405 -327 c-10 -2 -28 -2 -40 0 -13 2 -5 4 17 4
22 1 32 -1 23 -4z m215 0 c-18 -2 -48 -2 -65 0 -18 2 -4 4 32 4 36 0 50 -2 33
-4z"/>
<path d="M1796 6959 c-17 -11 -18 -26 -15 -278 l4 -266 -32 -3 c-45 -4 -55
-22 -51 -89 l3 -58 349 -3 c273 -2 351 1 358 10 9 15 10 83 2 115 -5 18 -14
23 -53 25 l-46 3 4 261 c3 234 2 262 -14 277 -14 15 -44 17 -253 17 -151 0
-244 -5 -256 -11z m175 -49 l49 0 0 -250 0 -250 -84 0 c-58 0 -85 4 -88 13 -2
6 -2 66 1 132 3 66 3 167 0 225 -7 124 0 145 43 136 17 -3 52 -6 79 -6z m271
-9 c11 -10 13 -470 1 -482 -5 -5 -44 -9 -88 -7 l-78 3 0 244 c1 163 5 246 12
250 13 8 143 2 153 -8z m78 -566 c0 -12 -340 -19 -460 -9 -150 13 -51 22 213
21 157 -1 247 -6 247 -12z"/>
<path d="M2834 7161 c-10 -2 -23 -8 -27 -15 -4 -6 -7 -91 -5 -189 l3 -179 -28
-14 c-23 -13 -27 -21 -27 -57 0 -24 5 -48 12 -55 17 -17 469 -17 486 0 7 7 12
32 12 55 0 40 -3 45 -32 58 l-33 13 3 179 c2 101 -1 184 -7 192 -7 11 -44 14
-173 15 -90 1 -173 -1 -184 -3z m128 -66 c10 -4 13 -40 12 -163 l-2 -157 -43
-7 c-23 -4 -47 -4 -53 1 -7 6 -10 64 -9 168 1 87 2 159 3 161 0 4 78 2 92 -3z
m171 -159 l2 -158 -25 -10 c-14 -5 -37 -6 -54 -1 l-29 8 1 160 c1 88 2 161 2
163 0 2 23 2 50 0 l51 -3 2 -159z"/>
<path d="M6119 5933 c-11 -13 -14 -78 -14 -329 l0 -312 -27 -22 c-37 -29 -38
-81 -3 -115 24 -25 26 -25 203 -25 166 0 180 1 200 20 25 23 31 97 10 118 -9
9 -11 95 -10 328 1 195 -3 324 -9 335 -9 17 -24 19 -173 19 -140 0 -166 -2
-177 -17z m299 -55 c14 -14 16 -146 4 -166 -7 -9 -39 -12 -128 -10 l-119 3 -3
79 c-2 44 -1 85 2 93 7 18 226 19 244 1z m7 -406 c1 -139 -1 -164 -14 -170 -9
-4 -67 -6 -128 -4 l-113 3 0 163 c0 89 3 166 7 170 4 3 61 5 127 4 l120 -3 1
-163z m13 -256 c3 -14 -14 -16 -152 -16 -128 0 -156 3 -156 14 0 21 5 21 162
20 123 -1 143 -4 146 -18z"/>
<path d="M3237 6041 c-113 -16 -216 -123 -287 -299 -23 -59 -60 -147 -80 -197
-45 -108 -60 -155 -60 -181 0 -36 52 -102 99 -127 42 -22 61 -25 196 -29 99
-3 164 -1 190 7 55 16 149 78 178 117 26 35 116 212 147 288 10 25 34 79 54
121 66 141 83 264 26 192 -20 -25 -170 -323 -170 -337 0 -4 -13 -34 -29 -69
-52 -113 -61 -137 -61 -162 0 -56 -48 -12 -67 62 -15 60 -105 298 -129 345 -8
14 -14 31 -14 37 0 7 -18 40 -40 73 -44 67 -47 80 -26 97 9 8 21 8 44 0 45
-15 430 -8 460 9 60 34 -5 52 -208 57 -91 2 -191 0 -223 -4z m-95 -168 c9 -10
19 -29 22 -43 4 -14 20 -56 36 -95 15 -38 38 -95 50 -125 11 -30 25 -64 29
-75 5 -11 16 -40 26 -65 9 -25 23 -58 30 -75 14 -30 19 -50 16 -70 -1 -6 -77
-10 -203 -11 -112 -1 -214 -3 -227 -5 -39 -7 -47 21 -23 72 24 49 156 369 181
439 28 76 36 83 63 53z"/>
<path d="M3102 5708 c-40 -83 -113 -270 -110 -285 3 -16 16 -18 124 -21 149
-3 157 2 126 81 -96 243 -115 274 -140 225z m46 -105 c6 -16 14 -40 18 -56 3
-15 10 -30 15 -33 5 -3 9 -18 9 -35 l0 -29 -64 0 c-36 0 -68 5 -71 10 -9 15
55 170 70 170 7 0 17 -12 23 -27z"/>
<path d="M4352 5248 c-9 -9 -12 -88 -12 -295 l0 -283 -154 0 c-127 0 -157 -3
-170 -16 -13 -13 -16 -46 -16 -200 0 -109 4 -193 10 -205 10 -18 27 -19 553
-19 409 0 546 3 555 12 9 9 12 69 12 209 0 161 -3 199 -15 209 -10 9 -51 11
-139 9 -68 -2 -128 -1 -132 3 -4 4 -6 131 -5 281 2 243 0 276 -14 291 -14 14
-46 16 -239 16 -159 0 -225 -3 -234 -12z m193 -59 c9 -14 10 -508 1 -516 -5
-5 -82 -7 -139 -3 -4 0 -6 116 -5 258 l3 257 55 6 c30 3 60 6 67 7 6 1 15 -3
18 -9z m215 -5 c13 -13 17 -501 4 -514 -5 -5 -40 -6 -78 -2 l-68 7 1 250 c0
138 1 253 1 257 0 16 124 18 140 2z m-612 -583 c16 -10 20 -287 4 -303 -5 -5
-25 -8 -43 -6 l-34 3 -3 144 c-2 97 1 148 9 157 13 16 47 18 67 5z m192 -136
c3 -77 2 -148 -2 -157 -10 -21 -92 -26 -104 -6 -4 6 -7 74 -7 151 0 156 2 159
68 155 l40 -3 5 -140z m207 132 c9 -5 12 -163 4 -210 0 -4 -34 -7 -73 -5 l-73
3 -3 99 c-1 55 -1 105 2 111 5 13 123 14 143 2z m218 2 c12 -9 13 -188 1 -207
-10 -16 -132 -16 -142 0 -5 7 -8 55 -8 106 -1 70 3 96 13 101 18 11 123 11
136 0z m150 -11 c3 -13 4 -84 3 -158 l-3 -135 -28 -3 c-52 -6 -56 6 -54 156 2
75 6 143 10 150 5 6 21 12 37 12 22 0 31 -6 35 -22z m145 3 c5 -11 10 -78 10
-149 0 -142 -5 -156 -57 -150 l-28 3 -3 149 c-2 113 1 151 10 158 23 14 57 8
68 -11z m-502 -275 c5 -26 -12 -34 -71 -30 -29 2 -60 3 -69 4 -18 0 -25 30
-11 44 4 4 39 5 77 4 60 -3 71 -6 74 -22z m212 9 c21 -25 -2 -38 -69 -41 -65
-2 -98 12 -88 40 9 23 138 23 157 1z"/>
<path d="M4090 4037 c-66 -44 -69 -56 -71 -322 -2 -201 0 -245 13 -270 18 -34
41 -56 78 -76 30 -15 296 -22 790 -20 192 1 238 8 278 45 51 45 53 58 50 324
-4 275 -5 282 -71 322 -31 19 -54 20 -533 20 l-501 0 -33 -23z m245 -60 c3
-12 5 -52 3 -87 l-3 -65 -118 0 c-65 -1 -123 2 -129 6 -18 11 -2 110 22 133
20 21 76 32 167 35 47 1 53 -1 58 -22z m451 -2 c3 -11 4 -49 2 -85 l-3 -64
-188 0 c-116 -1 -191 3 -195 9 -7 10 -4 119 3 145 4 13 34 15 190 15 178 0
186 -1 191 -20z m269 15 c34 0 69 -6 79 -13 19 -14 39 -125 26 -142 -5 -6 -70
-10 -157 -10 l-148 0 -3 73 c-4 97 4 106 82 98 32 -3 87 -6 121 -6z m-717
-397 l-3 -168 -90 -3 c-82 -2 -93 0 -120 22 -29 24 -30 24 -36 157 -3 74 -4
140 -1 147 3 9 38 12 128 12 l124 0 -2 -167z m450 0 l-3 -168 -190 0 -190 0
-3 168 -2 167 195 0 195 0 -2 -167z m370 32 c3 -160 1 -172 -43 -191 -36 -15
-255 -21 -256 -6 -3 46 -3 325 0 328 3 3 70 3 150 2 l146 -3 3 -130z"/>
<path d="M3895 3579 c-4 -5 2 -12 12 -16 10 -4 21 -11 24 -16 4 -5 15 -7 25
-4 17 4 17 6 -3 12 -13 4 -23 11 -23 15 0 12 -29 20 -35 9z"/>
<path d="M4867 3283 c-4 -5 34 -15 91 -22 53 -7 122 -17 152 -21 119 -18 259
-9 221 14 -26 17 -455 43 -464 29z"/>
<path d="M1910 5925 c0 -8 4 -23 9 -33 6 -9 21 -42 36 -72 38 -81 48 -97 114
-175 56 -67 122 -117 137 -103 7 8 -18 42 -87 116 -27 29 -49 56 -49 61 0 5
-7 11 -15 15 -8 3 -15 14 -15 25 0 10 -7 21 -15 25 -8 3 -15 15 -15 26 0 11
-7 23 -15 26 -8 4 -15 14 -15 23 0 9 -9 24 -20 34 -11 9 -20 24 -20 32 0 8 -7
15 -15 15 -8 0 -15 -7 -15 -15z"/>
<path d="M2660 4887 c0 -23 38 -120 79 -204 23 -45 41 -87 41 -94 0 -6 7 -27
16 -47 8 -21 21 -50 28 -67 7 -16 24 -52 37 -80 21 -44 24 -47 27 -25 2 13 -1
26 -7 28 -6 2 -11 18 -11 35 0 18 -7 41 -15 51 -8 11 -15 28 -15 39 0 10 -7
25 -15 33 -8 9 -15 26 -15 40 0 13 -4 24 -10 24 -5 0 -13 12 -16 28 -4 15 -13
36 -21 48 -7 12 -11 28 -8 36 3 8 -1 21 -10 28 -8 7 -15 23 -15 36 0 13 -9 32
-20 41 -11 10 -20 28 -20 40 0 14 -6 23 -15 23 -8 0 -15 -6 -15 -13z"/>
<path d="M2260 4682 c-8 -3 -18 -10 -22 -16 -4 -6 -8 -106 -8 -223 0 -193 2
-213 18 -222 22 -12 413 -13 433 -1 19 13 21 432 1 452 -9 9 -66 13 -210 14
-108 0 -204 -1 -212 -4z m168 -74 c17 -17 15 -113 -2 -127 -9 -7 -38 -11 -73
-9 l-58 3 -3 64 c-2 45 1 67 10 72 20 13 112 11 126 -3z m196 6 c21 -8 23
-116 2 -133 -9 -7 -38 -11 -73 -9 l-58 3 -3 59 c-2 32 -1 65 2 72 6 15 99 20
130 8z m-186 -266 c3 -53 1 -58 -21 -63 -13 -4 -46 -5 -73 -3 l-49 3 -3 49
c-5 75 -2 77 75 74 l68 -3 3 -57z m199 50 c6 -7 7 -35 4 -63 l-6 -50 -70 0
-70 0 -3 63 -3 62 69 0 c44 0 73 -5 79 -12z"/>
<path d="M2959 4674 c-6 -7 -11 -95 -12 -227 -2 -236 2 -255 52 -242 14 4 105
7 202 6 123 0 181 4 193 12 14 10 16 41 18 225 1 155 -2 216 -11 225 -18 18
-427 19 -442 1z m186 -129 l0 -70 -65 0 -65 0 -3 59 c-4 85 -3 87 70 84 l63
-3 0 -70z m193 63 c12 -12 16 -95 6 -122 -9 -23 -119 -23 -132 0 -8 15 -6 91
3 122 6 16 107 16 123 0z m-195 -206 c9 -8 11 -27 7 -64 l-5 -53 -65 0 -65 0
-6 50 c-8 67 5 81 71 79 27 -1 55 -6 63 -12z m195 2 c9 -3 12 -21 10 -61 l-3
-58 -63 -3 c-68 -3 -66 -5 -76 65 -8 58 10 74 72 67 26 -3 53 -8 60 -10z"/>
<path d="M2189 4053 c-38 -16 -65 -42 -78 -76 -7 -17 -11 -123 -11 -268 0
-267 4 -289 61 -330 l34 -24 361 0 360 0 36 25 c67 45 68 49 68 334 l0 256
-43 45 c-26 27 -53 45 -68 46 -13 1 -174 2 -358 3 -239 1 -342 -2 -362 -11z
m129 -62 c9 -5 15 -35 17 -84 4 -89 8 -85 -105 -83 l-75 1 0 62 c0 44 5 67 16
79 27 26 120 43 147 25z m350 -5 c13 -8 17 -155 5 -157 -5 0 -69 -1 -143 -2
l-135 -1 -3 73 c-2 40 1 78 7 84 10 13 249 16 269 3z m197 4 c61 0 87 -24 95
-88 3 -29 3 -57 -1 -63 -9 -16 -207 -20 -217 -5 -10 17 -1 139 11 154 7 9 22
12 40 8 16 -3 49 -6 72 -6z m-534 -243 c1 -10 0 -280 -1 -314 0 -18 -94 -17
-130 2 -16 8 -34 24 -40 34 -13 25 -13 274 -1 287 14 13 171 5 172 -9z m347
-154 l-3 -168 -139 0 -139 0 -1 163 c-1 90 1 165 3 168 2 2 67 4 143 4 l138 0
-2 -167z m280 42 c2 -66 0 -134 -3 -151 -8 -46 -55 -66 -142 -62 l-68 3 -3
168 -2 168 107 -3 108 -3 3 -120z"/>
<path d="M3206 3955 c-23 -23 -20 -45 9 -75 l26 -27 -21 -25 c-19 -25 -20 -41
-21 -372 -1 -259 2 -350 11 -361 19 -22 292 -22 310 0 10 13 13 93 11 363 -1
330 -3 347 -21 367 -26 27 -25 33 5 57 27 21 32 49 12 66 -7 6 -64 10 -137 10
-69 -1 -135 2 -146 6 -14 4 -28 1 -38 -9z m242 -71 c33 -9 27 -33 -15 -50 -61
-26 -173 -3 -173 36 0 5 8 11 18 13 26 7 144 7 170 1z m-18 -113 c15 -28 13
-522 -2 -556 -21 -47 -100 -44 -125 5 -14 29 -17 444 -3 506 11 47 32 64 82
64 27 0 40 -5 48 -19z"/>
<path d="M3608 8744 c-5 -4 -8 -14 -8 -22 0 -12 17 -14 105 -10 100 5 126 10
112 25 -10 9 -201 16 -209 7z"/>
<path d="M4347 8742 c-9 -2 -17 -7 -17 -12 0 -19 72 -25 320 -25 206 0 272 -3
295 -14 21 -10 66 -14 150 -13 84 1 126 -3 140 -12 12 -8 63 -15 128 -18 62
-3 113 -10 119 -16 7 -7 44 -12 89 -12 49 0 87 -5 105 -15 17 -9 57 -15 94
-15 41 0 72 -6 84 -15 13 -9 43 -15 81 -15 35 0 69 -6 80 -14 24 -16 123 -27
131 -14 3 5 0 16 -7 25 -10 12 -25 14 -65 10 -47 -5 -53 -3 -58 15 -5 19 -10
21 -74 15 -61 -5 -71 -3 -86 15 -16 19 -26 20 -90 15 -65 -6 -74 -4 -90 15
-16 19 -25 20 -94 14 -71 -6 -78 -5 -96 15 -17 21 -23 21 -123 15 -101 -7
-106 -7 -121 15 -15 21 -19 22 -135 15 -108 -5 -123 -4 -151 13 -29 18 -50 20
-312 18 -154 -1 -288 -3 -297 -5z"/>
<path d="M6167 8533 c-30 -8 -13 -27 32 -36 56 -11 75 -4 61 23 -11 20 -47 25
-93 13z"/>
<path d="M6277 8504 c-4 -4 -7 -14 -7 -21 0 -10 11 -13 43 -11 29 2 42 8 42
18 0 16 -64 27 -78 14z"/>
<path d="M6364 8468 c-10 -15 24 -38 57 -38 15 0 31 -4 34 -10 3 -5 24 -10 46
-10 26 0 39 -4 39 -14 0 -8 16 -16 42 -19 24 -3 44 -11 46 -16 2 -6 19 -11 38
-11 24 0 34 -5 34 -15 0 -9 9 -15 25 -15 14 0 28 -7 31 -15 4 -9 19 -15 35
-15 19 0 29 -5 29 -15 0 -9 9 -15 25 -15 14 0 28 -7 31 -15 4 -8 17 -15 30
-15 14 0 27 -7 30 -15 4 -8 14 -15 24 -15 11 0 34 -13 52 -30 18 -16 43 -30
55 -30 13 0 23 -4 23 -10 0 -5 9 -19 20 -30 11 -11 25 -20 30 -20 6 0 10 -5
10 -10 0 -6 11 -15 25 -20 14 -5 25 -16 25 -24 0 -10 6 -13 15 -10 8 4 17 -1
21 -10 3 -9 12 -16 20 -16 8 0 14 -7 14 -15 0 -8 7 -15 15 -15 8 0 15 -7 15
-15 0 -8 7 -15 15 -15 8 0 15 -8 15 -18 0 -10 34 -54 75 -97 41 -44 75 -84 75
-88 0 -5 16 -28 35 -51 19 -24 35 -48 35 -55 0 -6 7 -11 15 -11 8 0 15 4 15 9
0 5 -7 14 -15 21 -8 7 -15 21 -15 31 0 10 -5 21 -11 24 -5 4 -14 17 -20 28
-12 28 -31 59 -45 72 -6 5 -26 30 -44 55 -52 69 -123 144 -197 210 -48 43
-151 120 -161 120 -5 0 -15 7 -22 15 -7 8 -21 15 -31 15 -11 0 -19 4 -19 9 0
5 -24 21 -52 35 -29 15 -60 30 -68 35 -50 28 -80 41 -93 41 -8 0 -20 7 -27 15
-7 8 -23 15 -37 15 -13 0 -26 7 -29 15 -4 8 -18 15 -34 15 -16 0 -30 7 -34 15
-3 9 -19 15 -41 15 -22 0 -38 6 -41 15 -4 10 -20 15 -49 15 -29 0 -45 5 -49
15 -6 18 -71 21 -82 3z"/>
<path d="M7117 3951 c-15 -15 -27 -30 -27 -34 0 -3 -13 -21 -30 -39 -16 -18
-30 -38 -30 -46 0 -7 -7 -15 -15 -18 -8 -4 -15 -10 -15 -14 0 -26 -267 -290
-293 -290 -7 0 -27 -13 -45 -30 -18 -16 -41 -30 -52 -30 -10 0 -20 -7 -24 -15
-3 -8 -16 -15 -30 -15 -13 0 -26 -7 -30 -15 -3 -9 -19 -15 -41 -15 -22 0 -38
-6 -41 -15 -4 -9 -19 -15 -39 -15 -18 0 -38 -7 -45 -15 -7 -8 -29 -15 -49 -15
-21 0 -46 -7 -57 -15 -10 -8 -41 -15 -69 -15 -27 0 -63 -7 -79 -15 -18 -9 -56
-15 -103 -15 -44 0 -88 -6 -106 -14 -23 -11 -80 -16 -199 -18 -157 -3 -191 -8
-174 -25 4 -5 88 -9 186 -11 142 -3 191 0 234 12 30 9 81 16 114 16 33 0 79 7
102 15 23 8 56 15 72 15 16 0 39 5 51 12 12 6 38 15 57 19 43 9 96 27 132 45
14 8 33 14 41 14 20 0 117 53 212 116 92 60 196 159 275 259 30 39 57 72 60
75 8 8 29 44 39 67 6 11 15 24 20 28 6 3 11 13 11 22 0 9 7 24 16 34 26 29 1
29 -29 0z"/>
<path d="M2487 2230 c-73 -9 -95 -28 -79 -65 13 -29 24 -30 107 -10 37 9 112
15 193 15 153 0 157 -4 99 -81 -45 -59 -116 -170 -157 -244 -18 -33 -41 -71
-51 -85 -29 -42 -144 -222 -173 -272 -15 -26 -36 -50 -47 -53 -29 -9 -44 -44
-27 -61 11 -11 52 -12 243 -3 151 7 271 7 350 1 75 -6 208 -6 351 0 131 5 285
5 358 0 72 -5 228 -5 358 0 138 5 276 5 347 0 73 -6 202 -6 337 0 154 6 263 6
368 -2 128 -10 150 -10 163 3 26 26 7 55 -40 62 -66 10 -401 11 -509 2 -108
-9 -116 -4 -77 43 41 51 139 200 239 365 57 94 129 209 162 256 62 91 69 113
41 127 -10 6 -121 9 -248 8 -182 -1 -236 -4 -259 -16 -38 -19 -41 -31 -18 -60
l19 -24 77 17 c88 20 321 24 331 6 4 -6 -11 -36 -34 -67 -22 -31 -79 -120
-126 -197 -47 -77 -114 -185 -150 -240 -35 -55 -79 -126 -97 -157 -18 -32 -38
-60 -46 -63 -7 -2 -70 0 -140 6 -117 10 -255 8 -409 -8 -79 -7 -80 0 -14 87
26 36 77 112 113 170 36 58 112 179 168 270 56 91 113 178 126 193 19 23 33
74 22 78 -25 7 -395 8 -452 1 -85 -11 -112 -27 -102 -60 10 -31 32 -34 116
-17 52 11 117 15 201 13 146 -4 145 -2 69 -106 -26 -37 -86 -130 -133 -207
-107 -178 -243 -396 -258 -413 -8 -10 -26 -12 -63 -8 -134 15 -274 17 -403 7
-79 -7 -148 -9 -153 -6 -7 4 -3 17 10 33 42 55 170 252 255 392 49 80 109 176
134 214 84 124 83 123 72 144 -10 18 -23 19 -248 17 -262 -2 -303 -9 -303 -51
0 -39 31 -48 110 -30 44 10 117 16 199 16 157 0 156 1 78 -110 -29 -41 -77
-115 -107 -165 -85 -142 -271 -439 -284 -453 -10 -10 -41 -10 -159 -1 -113 9
-182 9 -298 0 -87 -7 -156 -8 -161 -3 -5 5 6 27 25 53 40 52 174 256 208 316
63 109 142 235 193 306 57 80 65 100 44 113 -16 10 -392 14 -461 4z"/>
<path d="M2155 681 c-46 -7 -46 -5 -27 -134 7 -43 12 -130 12 -192 0 -103 2
-115 19 -125 11 -5 79 -10 151 -10 111 0 132 2 137 16 10 27 -17 34 -138 34
l-116 0 -6 67 c-3 37 -3 73 0 80 3 8 23 13 53 13 58 0 80 7 80 26 0 18 -36 26
-91 22 l-44 -3 0 80 0 80 115 3 c119 3 142 10 120 37 -10 12 -34 15 -119 14
-58 -1 -124 -5 -146 -8z"/>
<path d="M2512 683 c-26 -3 -45 -10 -49 -19 -6 -18 14 -328 26 -392 5 -23 12
-46 16 -50 4 -4 48 -6 98 -4 69 2 98 7 123 22 48 30 58 47 58 99 0 48 -26 100
-51 101 -18 0 -16 35 2 50 9 8 15 29 15 59 -1 96 -93 148 -238 134z m106 -58
c56 -17 82 -44 82 -87 0 -41 -33 -58 -112 -58 l-68 0 0 74 c0 93 7 98 98 71z
m72 -212 c35 -23 40 -33 40 -73 -1 -50 -30 -68 -116 -72 l-69 -3 -6 65 c-3 36
-7 70 -9 75 -5 22 3 25 68 25 47 0 75 -5 92 -17z"/>
<path d="M2833 679 c-26 -10 -26 -9 -14 -75 5 -27 15 -119 21 -204 9 -120 15
-158 28 -167 11 -9 58 -13 149 -13 113 0 135 2 140 16 10 27 -17 34 -139 34
l-118 0 0 120 c0 132 -16 269 -34 287 -7 7 -19 8 -33 2z"/>
<path d="M3270 683 c-24 -9 -51 -35 -75 -73 -22 -34 -55 -147 -55 -186 0 -110
115 -215 218 -202 53 8 117 50 147 98 76 120 48 257 -69 342 -32 23 -49 28
-95 27 -31 0 -63 -3 -71 -6z m149 -82 c94 -94 74 -264 -36 -313 -42 -19 -46
-19 -89 -2 -35 13 -49 26 -65 57 -23 50 -24 82 -2 170 21 87 56 127 114 127
32 0 46 -7 78 -39z"/>
<path d="M3815 681 l-50 -6 3 -125 c4 -181 20 -301 44 -322 48 -43 201 -25
258 30 39 38 60 102 60 178 0 170 -127 269 -315 245z m120 -61 c54 -12 78 -28
113 -77 29 -42 31 -155 4 -207 -31 -57 -48 -68 -116 -73 -67 -6 -78 0 -82 41
-23 259 -25 308 -13 322 6 8 19 12 28 10 9 -2 39 -9 66 -16z"/>
<path d="M4605 681 c-39 -6 -40 -7 -37 -41 1 -19 5 -114 10 -211 5 -125 11
-181 21 -192 11 -14 35 -17 151 -17 107 0 140 3 149 14 21 26 -21 36 -143 36
l-116 0 0 80 0 80 49 0 c59 0 81 7 81 26 0 18 -41 28 -83 20 -51 -9 -58 1 -55
85 l3 74 118 3 c96 2 119 6 124 18 3 9 0 20 -8 25 -15 10 -201 10 -264 0z"/>
<path d="M5306 681 c-10 -16 25 -445 37 -453 5 -3 20 -3 31 2 25 9 25 33 -1
203 -8 59 -12 111 -9 115 4 3 16 -5 26 -18 11 -14 42 -54 70 -89 27 -35 50
-75 50 -87 0 -55 39 -39 75 29 55 106 87 157 106 167 22 12 21 14 19 -78 -1
-35 2 -103 6 -153 l7 -89 28 0 c15 0 30 3 32 8 3 4 1 32 -4 62 -5 30 -15 127
-22 215 l-12 160 -27 3 c-18 2 -28 -1 -28 -9 0 -7 -20 -42 -44 -78 -24 -37
-54 -85 -65 -108 -12 -23 -28 -44 -36 -47 -14 -5 -70 65 -150 187 -21 31 -41
57 -46 57 -4 0 -14 3 -22 6 -8 3 -18 1 -21 -5z"/>
<path d="M5870 681 l-35 -6 4 -167 c2 -92 9 -193 15 -225 l12 -58 129 -3 c143
-3 175 1 175 23 0 20 -27 25 -153 28 l-109 2 -4 54 c-3 30 -6 57 -9 59 -2 3 0
13 6 23 7 15 21 19 59 19 58 0 80 7 80 26 0 18 -41 28 -89 21 -57 -7 -62 0
-59 84 l3 74 123 3 c101 2 124 5 129 18 3 9 0 20 -8 25 -16 10 -214 10 -269 0z"/>
<path d="M1373 664 c-3 -8 -1 -33 6 -53 6 -21 11 -88 11 -148 0 -61 3 -138 6
-172 6 -54 10 -62 31 -67 47 -12 50 14 17 149 l-6 27 72 0 c76 0 160 29 160
56 0 6 7 17 15 24 42 35 -5 145 -77 180 -55 26 -225 30 -235 4z m220 -53 c14
-6 33 -24 42 -42 37 -70 -16 -119 -126 -119 l-66 0 -6 78 c-6 98 0 106 74 98
31 -3 68 -10 82 -15z"/>
<path d="M1721 663 c-5 -11 -5 -41 1 -78 5 -33 7 -94 4 -135 -13 -169 76 -260
226 -232 65 13 104 47 117 103 12 54 -3 337 -19 353 -17 17 -45 -8 -42 -35 1
-13 5 -91 8 -174 l6 -150 -25 -24 c-36 -32 -129 -36 -169 -6 -31 23 -32 29
-48 205 -6 69 -13 140 -16 158 -5 35 -27 43 -43 15z"/>
<path d="M4156 671 c-9 -14 14 -311 27 -355 13 -46 69 -91 125 -101 20 -3 62
-1 92 5 44 8 61 17 88 47 l32 36 0 141 c0 167 -6 213 -31 226 -31 17 -52 1
-45 -34 3 -17 9 -95 12 -174 7 -139 6 -143 -16 -167 -31 -33 -97 -42 -144 -20
-59 28 -69 59 -74 230 -2 83 -9 156 -14 163 -12 14 -44 16 -52 3z"/>
<path d="M4914 665 c-7 -16 -5 -43 17 -288 l13 -148 30 3 c30 3 31 4 28 48 -2
25 -7 60 -12 78 -7 26 -5 34 10 42 26 14 82 1 103 -24 72 -83 107 -130 107
-146 0 -17 64 -8 68 10 1 8 -27 47 -63 87 -63 69 -76 103 -38 103 7 0 25 12
38 26 52 56 22 156 -60 201 -33 18 -57 22 -138 22 -79 1 -99 -2 -103 -14z
m185 -46 c53 -12 80 -42 81 -91 0 -29 -6 -41 -30 -58 -24 -17 -41 -20 -97 -18
l-68 3 -6 75 c-9 102 9 115 120 89z"/>
</g>
</svg>
